<svg width="117" height="24" viewBox="0 0 117 24" fill="none" xmlns="http://www.w3.org/2000/svg">
<g clip-path="url(#clip0_3306_5689)">
<path d="M34.574 4.21514C34.3764 4.09251 34.1686 4.03125 33.9509 4.03125C33.7328 4.03125 33.525 4.09251 33.3277 4.21514C33.1301 4.33765 32.9835 4.51492 32.8885 4.74635L27.0039 18.5381H29.7214L30.986 15.4732H36.9157L38.1803 18.5381H40.8978L35.0134 4.74635C34.9179 4.51492 34.7714 4.33765 34.574 4.21514ZM31.8712 13.3278L33.9509 8.28755L36.0305 13.3278H31.8712Z" fill="#252524"/>
<path d="M46.0264 16.1877C45.7537 15.9836 45.6177 15.725 45.6177 15.4115V9.95609H48.2331V7.91286H45.6177V5.46094H43.1863L43.1809 7.91286H41.2861V9.95609H43.1764L43.1658 14.7984C43.1658 15.6024 43.3191 16.2833 43.6255 16.8417C43.9321 17.4003 44.3815 17.8225 44.9741 18.1084C45.5667 18.3946 46.2783 18.5376 47.1093 18.5376H48.4374V16.4944H47.048C46.6394 16.4944 46.2987 16.3921 46.0264 16.1877Z" fill="#252524"/>
<path d="M57.51 8.17857C56.8015 7.79731 56.0047 7.60645 55.1194 7.60645C54.2338 7.60645 53.4337 7.79731 52.7186 8.17857C52.0034 8.56006 51.4415 9.08778 51.033 9.76208C50.6243 10.4363 50.4199 11.1959 50.4199 12.0402V14.39C50.4199 15.221 50.631 15.9805 51.0534 16.6681C51.4755 17.3562 52.0475 17.894 52.7697 18.2822C53.4915 18.6704 54.2883 18.8646 55.1602 18.8646C56.1273 18.8646 56.9991 18.6298 57.7756 18.1597C58.552 17.6899 59.0762 17.0803 59.3489 16.331L57.3465 15.4933C57.1285 15.8747 56.8117 16.195 56.3964 16.4535C55.9807 16.7125 55.5689 16.8418 55.1602 16.8418C54.7241 16.8418 54.3327 16.7534 53.9854 16.5761C53.6381 16.3994 53.3654 16.1574 53.1681 15.8509C52.9705 15.5443 52.8718 15.2005 52.8718 14.819V14.0835H58.7563C59.0558 14.0835 59.3045 13.9848 59.5021 13.7872C59.6994 13.5899 59.7983 13.3412 59.7983 13.0414V12.0402C59.7983 11.1959 59.594 10.4363 59.1854 9.76207C58.7767 9.08778 58.2181 8.56006 57.51 8.17857ZM57.3465 12.2446H52.8718V11.6316C52.8718 11.2639 52.9705 10.9267 53.1681 10.6203C53.3654 10.3137 53.6345 10.0756 53.9752 9.90505C54.3155 9.73488 54.697 9.64967 55.1194 9.64967C55.5415 9.64967 55.9195 9.73848 56.2533 9.91528C56.587 10.0924 56.8526 10.3309 57.0503 10.6304C57.2475 10.9302 57.3465 11.2639 57.3465 11.6316L57.3465 12.2446Z" fill="#252524"/>
<path d="M70.6579 8.13765C70.0925 7.78359 69.4013 7.60645 68.5841 7.60645C67.7122 7.60645 67.0006 7.7872 66.4489 8.14788C65.947 8.47646 65.5734 8.87334 65.3252 9.33691L65.2332 9.32276V7.91297H62.7812V18.5377H65.2332V11.8359C65.2332 11.373 65.3353 10.9778 65.5397 10.6508C65.7439 10.324 66.0435 10.0756 66.4387 9.90505C66.8335 9.73488 67.3102 9.64968 67.8689 9.64968C68.3046 9.64968 68.6792 9.73139 68.9927 9.89483C69.3059 10.0584 69.5408 10.3003 69.6976 10.6203C69.854 10.9404 69.9326 11.3251 69.9326 11.7746V18.5377H72.3845V12.1833C72.3845 11.2025 72.2379 10.3719 71.9451 9.6906C71.6521 9.00956 71.223 8.49206 70.6579 8.13765Z" fill="#252524"/>
<path d="M84.8475 7.91309H81.9257L79.7634 11.1256L77.7575 7.91309H74.8357L78.3754 13.1879L74.7744 18.5378H77.6757L79.8494 15.3175L81.9665 18.5378H84.8884L81.2463 13.2481L84.8475 7.91309Z" fill="#252524"/>
<path d="M91.1204 4.23535H89.4858C89.3766 4.23535 89.2815 4.27627 89.1998 4.35798C89.1181 4.4397 89.0771 4.53513 89.0771 4.64404V6.27858C89.0771 6.38785 89.1181 6.48293 89.1998 6.56464C89.2815 6.64636 89.3766 6.68728 89.4858 6.68728H91.1204C91.2293 6.68728 91.3247 6.64636 91.4064 6.56464C91.4882 6.48293 91.5291 6.38785 91.5291 6.27858V4.64404C91.5291 4.53513 91.4882 4.4397 91.4064 4.35798C91.3247 4.27627 91.2293 4.23535 91.1204 4.23535Z" fill="#252524"/>
<path d="M90.773 7.91309H86.9521V9.95632H89.0771V18.5378H91.529V8.6691C91.529 8.45127 91.4574 8.27063 91.3144 8.12754C91.1714 7.98457 90.9907 7.91309 90.773 7.91309Z" fill="#252524"/>
<path d="M102.011 8.14778C101.302 7.75955 100.506 7.56543 99.6204 7.56543C98.7348 7.56543 97.9347 7.75955 97.2196 8.14778C96.5044 8.53602 95.9425 9.07071 95.5339 9.75175C95.1252 10.433 94.9209 11.1958 94.9209 12.0401V14.3899C94.9209 15.2346 95.1252 15.9973 95.5339 16.6782C95.9425 17.3596 96.5044 17.8939 97.2196 18.2821C97.9347 18.6703 98.7348 18.8645 99.6204 18.8645C100.506 18.8645 101.302 18.6703 102.011 18.2821C102.719 17.8939 103.278 17.3596 103.686 16.6782C104.095 15.9973 104.299 15.2346 104.299 14.3899V12.0401C104.299 11.1958 104.095 10.433 103.686 9.75175C103.278 9.07071 102.719 8.53602 102.011 8.14778ZM101.848 14.7985C101.848 15.1801 101.748 15.5239 101.551 15.8303C101.354 16.1368 101.088 16.3788 100.754 16.5555C100.42 16.7329 100.042 16.8212 99.6204 16.8212C99.198 16.8212 98.8165 16.7329 98.4761 16.5555C98.1355 16.3788 97.8664 16.1368 97.6691 15.8303C97.4715 15.5239 97.3728 15.1801 97.3728 14.7985V11.6315C97.3728 11.2503 97.4715 10.9061 97.6691 10.5997C97.8664 10.2932 98.1355 10.0515 98.4761 9.87438C98.8165 9.69747 99.198 9.60866 99.6204 9.60866C100.042 9.60866 100.42 9.69747 100.754 9.87438C101.088 10.0515 101.354 10.2932 101.551 10.5997C101.748 10.9061 101.848 11.2503 101.848 11.6315V14.7985Z" fill="#252524"/>
<path d="M116.037 9.69059C115.744 9.00955 115.315 8.49206 114.75 8.13765C114.184 7.78359 113.493 7.60645 112.676 7.60645C111.804 7.60645 111.092 7.7872 110.541 8.14788C110.039 8.47646 109.665 8.87334 109.417 9.33691L109.325 9.32276V7.91297H106.873V18.5377H109.325V11.8359C109.325 11.373 109.427 10.9778 109.631 10.6508C109.836 10.324 110.135 10.0756 110.53 9.90505C110.925 9.73488 111.402 9.64968 111.961 9.64968C112.396 9.64968 112.771 9.73139 113.084 9.89483C113.398 10.0584 113.633 10.3003 113.789 10.6203C113.946 10.9404 114.024 11.3251 114.024 11.7746V18.5377H116.476V12.1833C116.476 11.2025 116.33 10.3719 116.037 9.69059Z" fill="#252524"/>
<path d="M0 7.52101V16.479C0 17.5658 0.579807 18.5701 1.52101 19.1135L9.27885 23.5924C10.2201 24.1358 11.3797 24.1358 12.3209 23.5924L20.0787 19.1135C21.0199 18.5701 21.5997 17.5658 21.5997 16.479V7.52101C21.5997 6.4342 21.0199 5.42995 20.0787 4.88654L12.3209 0.407553C11.3797 -0.135851 10.2201 -0.135851 9.27885 0.407553L1.52101 4.88654C0.579804 5.42995 0 6.4342 0 7.52101Z" fill="#252524"/>
<path d="M6.55934 11.7537L3.61719 17.4534L7.06175 17.4633L10.0512 11.3311H7.25311C6.95974 11.3311 6.69386 11.493 6.55934 11.7537Z" fill="white"/>
<path d="M11.5698 4.59785C11.4365 4.33039 11.1786 4.16884 10.88 4.1654C10.582 4.1563 10.3198 4.3176 10.1804 4.58176L9.18359 6.5104L10.9047 9.98048L11.1056 10.3856L11.3369 10.8519L11.5642 11.3102L14.6163 17.464H17.9835L11.5698 4.59785Z" fill="white"/>
<path d="M8.51855 17.4636H13.2807L10.8731 12.6338L8.51855 17.4636Z" fill="white"/>
</g>
<defs>
<clipPath id="clip0_3306_5689">
<rect width="116.476" height="24" fill="white"/>
</clipPath>
</defs>
</svg>
